<?xml version="1.0" encoding="utf-8" ?>
<svg baseProfile="full" height="708.6614" version="1.1" width="1488.18894" xmlns="http://www.w3.org/2000/svg" xmlns:ev="http://www.w3.org/2001/xml-events" xmlns:xlink="http://www.w3.org/1999/xlink"><defs /><rect fill="white" height="708.6614" opacity="1" stroke-width="0" width="1488.18894" x="0.0" y="0.0" /><g><g id="vlines" stroke="lightgray"><line x1="0.0" x2="0.0" y1="70.86614" y2="673.22833" /><text fill="black" font-family="Arial Bold" font-size="16" font-weight="bold" stroke="black" stroke-width="0" x="3.543307" y="53.149605">37</text><line x1="35.43307" x2="35.43307" y1="70.86614" y2="673.22833" /><text fill="black" font-family="Arial Bold" font-size="16" font-weight="bold" stroke="black" stroke-width="0" x="38.976377" y="53.149605">38</text><line x1="70.86614" x2="70.86614" y1="70.86614" y2="673.22833" /><text fill="black" font-family="Arial Bold" font-size="16" font-weight="bold" stroke="black" stroke-width="0" x="74.409447" y="53.149605">39</text><line x1="106.29921" x2="106.29921" y1="70.86614" y2="673.22833" /><text fill="#800000" font-family="Arial Bold" font-size="18" font-weight="bold" stroke="#800000" stroke-width="0" x="109.842517" y="35.43307">October</text><text fill="black" font-family="Arial Bold" font-size="16" font-weight="bold" stroke="black" stroke-width="0" x="109.842517" y="53.149605">40</text><line x1="141.73228" x2="141.73228" y1="70.86614" y2="673.22833" /><text fill="black" font-family="Arial Bold" font-size="16" font-weight="bold" stroke="black" stroke-width="0" x="145.275587" y="53.149605">41</text><line x1="177.16535" x2="177.16535" y1="70.86614" y2="673.22833" /><text fill="black" font-family="Arial Bold" font-size="16" font-weight="bold" stroke="black" stroke-width="0" x="180.708657" y="53.149605">42</text><line x1="212.59842" x2="212.59842" y1="70.86614" y2="673.22833" /><text fill="black" font-family="Arial Bold" font-size="16" font-weight="bold" stroke="black" stroke-width="0" x="216.141727" y="53.149605">43</text><line x1="248.03149000000002" x2="248.03149000000002" y1="70.86614" y2="673.22833" /><text fill="#800000" font-family="Arial Bold" font-size="18" font-weight="bold" stroke="#800000" stroke-width="0" x="251.574797" y="35.43307">November</text><text fill="black" font-family="Arial Bold" font-size="16" font-weight="bold" stroke="black" stroke-width="0" x="251.574797" y="53.149605">44</text><line x1="283.46456" x2="283.46456" y1="70.86614" y2="673.22833" /><text fill="black" font-family="Arial Bold" font-size="16" font-weight="bold" stroke="black" stroke-width="0" x="287.007867" y="53.149605">45</text><line x1="318.89763" x2="318.89763" y1="70.86614" y2="673.22833" /><text fill="black" font-family="Arial Bold" font-size="16" font-weight="bold" stroke="black" stroke-width="0" x="322.440937" y="53.149605">46</text><line x1="354.3307" x2="354.3307" y1="70.86614" y2="673.22833" /><text fill="black" font-family="Arial Bold" font-size="16" font-weight="bold" stroke="black" stroke-width="0" x="357.874007" y="53.149605">47</text><line x1="389.76377" x2="389.76377" y1="70.86614" y2="673.22833" /><text fill="black" font-family="Arial Bold" font-size="16" font-weight="bold" stroke="black" stroke-width="0" x="393.307077" y="53.149605">48</text><line x1="425.19684" x2="425.19684" y1="70.86614" y2="673.22833" /><text fill="#800000" font-family="Arial Bold" font-size="18" font-weight="bold" stroke="#800000" stroke-width="0" x="428.740147" y="35.43307">December</text><text fill="black" font-family="Arial Bold" font-size="16" font-weight="bold" stroke="black" stroke-width="0" x="428.740147" y="53.149605">49</text><line x1="460.62991" x2="460.62991" y1="70.86614" y2="673.22833" /><text fill="black" font-family="Arial Bold" font-size="16" font-weight="bold" stroke="black" stroke-width="0" x="464.173217" y="53.149605">50</text><line x1="496.06298000000004" x2="496.06298000000004" y1="70.86614" y2="673.22833" /><text fill="black" font-family="Arial Bold" font-size="16" font-weight="bold" stroke="black" stroke-width="0" x="499.606287" y="53.149605">51</text><line x1="531.49605" x2="531.49605" y1="70.86614" y2="673.22833" /><text fill="black" font-family="Arial Bold" font-size="16" font-weight="bold" stroke="black" stroke-width="0" x="535.039357" y="53.149605">52</text><line x1="566.92912" x2="566.92912" y1="70.86614" y2="673.22833" /><text fill="#400000" font-family="Arial Bold" font-size="20" font-weight="bold" stroke="#400000" stroke-width="0" x="570.472427" y="17.716535">2019</text><text fill="#800000" font-family="Arial Bold" font-size="18" font-weight="bold" stroke="#800000" stroke-width="0" x="570.472427" y="35.43307">January</text><text fill="black" font-family="Arial Bold" font-size="16" font-weight="bold" stroke="black" stroke-width="0" x="570.472427" y="53.149605">01</text><line x1="602.36219" x2="602.36219" y1="70.86614" y2="673.22833" /><text fill="black" font-family="Arial Bold" font-size="16" font-weight="bold" stroke="black" stroke-width="0" x="605.905497" y="53.149605">02</text><line x1="637.79526" x2="637.79526" y1="70.86614" y2="673.22833" /><text fill="black" font-family="Arial Bold" font-size="16" font-weight="bold" stroke="black" stroke-width="0" x="641.338567" y="53.149605">03</text><line x1="673.22833" x2="673.22833" y1="70.86614" y2="673.22833" /><text fill="black" font-family="Arial Bold" font-size="16" font-weight="bold" stroke="black" stroke-width="0" x="676.7716369999999" y="53.149605">04</text><line x1="708.6614" x2="708.6614" y1="70.86614" y2="673.22833" /><text fill="black" font-family="Arial Bold" font-size="16" font-weight="bold" stroke="black" stroke-width="0" x="712.204707" y="53.149605">05</text><line x1="744.09447" x2="744.09447" y1="70.86614" y2="673.22833" /><text fill="#800000" font-family="Arial Bold" font-size="18" font-weight="bold" stroke="#800000" stroke-width="0" x="747.637777" y="35.43307">February</text><text fill="black" font-family="Arial Bold" font-size="16" font-weight="bold" stroke="black" stroke-width="0" x="747.637777" y="53.149605">06</text><line x1="779.52754" x2="779.52754" y1="70.86614" y2="673.22833" /><text fill="black" font-family="Arial Bold" font-size="16" font-weight="bold" stroke="black" stroke-width="0" x="783.070847" y="53.149605">07</text><line x1="814.96061" x2="814.96061" y1="70.86614" y2="673.22833" /><text fill="black" font-family="Arial Bold" font-size="16" font-weight="bold" stroke="black" stroke-width="0" x="818.503917" y="53.149605">08</text><line x1="850.39368" x2="850.39368" y1="70.86614" y2="673.22833" /><text fill="black" font-family="Arial Bold" font-size="16" font-weight="bold" stroke="black" stroke-width="0" x="853.936987" y="53.149605">09</text><line x1="885.8267500000001" x2="885.8267500000001" y1="70.86614" y2="673.22833" /><text fill="#800000" font-family="Arial Bold" font-size="18" font-weight="bold" stroke="#800000" stroke-width="0" x="889.370057" y="35.43307">March</text><text fill="black" font-family="Arial Bold" font-size="16" font-weight="bold" stroke="black" stroke-width="0" x="889.370057" y="53.149605">10</text><line x1="921.25982" x2="921.25982" y1="70.86614" y2="673.22833" /><text fill="black" font-family="Arial Bold" font-size="16" font-weight="bold" stroke="black" stroke-width="0" x="924.803127" y="53.149605">11</text><line x1="956.69289" x2="956.69289" y1="70.86614" y2="673.22833" /><text fill="black" font-family="Arial Bold" font-size="16" font-weight="bold" stroke="black" stroke-width="0" x="960.236197" y="53.149605">12</text><line x1="992.1259600000001" x2="992.1259600000001" y1="70.86614" y2="673.22833" /><text fill="black" font-family="Arial Bold" font-size="16" font-weight="bold" stroke="black" stroke-width="0" x="995.669267" y="53.149605">13</text><line x1="1027.5590300000001" x2="1027.5590300000001" y1="70.86614" y2="673.22833" /><text fill="#800000" font-family="Arial Bold" font-size="18" font-weight="bold" stroke="#800000" stroke-width="0" x="1031.102337" y="35.43307">April</text><text fill="black" font-family="Arial Bold" font-size="16" font-weight="bold" stroke="black" stroke-width="0" x="1031.102337" y="53.149605">14</text><line x1="1062.9921" x2="1062.9921" y1="70.86614" y2="673.22833" /><text fill="black" font-family="Arial Bold" font-size="16" font-weight="bold" stroke="black" stroke-width="0" x="1066.535407" y="53.149605">15</text><line x1="1098.42517" x2="1098.42517" y1="70.86614" y2="673.22833" /><text fill="black" font-family="Arial Bold" font-size="16" font-weight="bold" stroke="black" stroke-width="0" x="1101.968477" y="53.149605">16</text><line x1="1133.85824" x2="1133.85824" y1="70.86614" y2="673.22833" /><text fill="black" font-family="Arial Bold" font-size="16" font-weight="bold" stroke="black" stroke-width="0" x="1137.401547" y="53.149605">17</text><line x1="1169.29131" x2="1169.29131" y1="70.86614" y2="673.22833" /><text fill="#800000" font-family="Arial Bold" font-size="18" font-weight="bold" stroke="#800000" stroke-width="0" x="1172.834617" y="35.43307">May</text><text fill="black" font-family="Arial Bold" font-size="16" font-weight="bold" stroke="black" stroke-width="0" x="1172.834617" y="53.149605">18</text><line x1="1204.72438" x2="1204.72438" y1="70.86614" y2="673.22833" /><text fill="black" font-family="Arial Bold" font-size="16" font-weight="bold" stroke="black" stroke-width="0" x="1208.267687" y="53.149605">19</text><line x1="1240.15745" x2="1240.15745" y1="70.86614" y2="673.22833" /><text fill="black" font-family="Arial Bold" font-size="16" font-weight="bold" stroke="black" stroke-width="0" x="1243.700757" y="53.149605">20</text><line x1="1275.59052" x2="1275.59052" y1="70.86614" y2="673.22833" /><text fill="black" font-family="Arial Bold" font-size="16" font-weight="bold" stroke="black" stroke-width="0" x="1279.1338269999999" y="53.149605">21</text><line x1="1311.02359" x2="1311.02359" y1="70.86614" y2="673.22833" /><text fill="black" font-family="Arial Bold" font-size="16" font-weight="bold" stroke="black" stroke-width="0" x="1314.566897" y="53.149605">22</text><line x1="1346.45666" x2="1346.45666" y1="70.86614" y2="673.22833" /><text fill="#800000" font-family="Arial Bold" font-size="18" font-weight="bold" stroke="#800000" stroke-width="0" x="1349.999967" y="35.43307">June</text><text fill="black" font-family="Arial Bold" font-size="16" font-weight="bold" stroke="black" stroke-width="0" x="1349.999967" y="53.149605">23</text><line x1="1381.88973" x2="1381.88973" y1="70.86614" y2="673.22833" /><text fill="black" font-family="Arial Bold" font-size="16" font-weight="bold" stroke="black" stroke-width="0" x="1385.433037" y="53.149605">24</text><line x1="1417.3228" x2="1417.3228" y1="70.86614" y2="673.22833" /><text fill="black" font-family="Arial Bold" font-size="16" font-weight="bold" stroke="black" stroke-width="0" x="1420.866107" y="53.149605">25</text><line x1="1452.75587" x2="1452.75587" y1="70.86614" y2="673.22833" /><text fill="black" font-family="Arial Bold" font-size="16" font-weight="bold" stroke="black" stroke-width="0" x="1456.299177" y="53.149605">26</text><line x1="1488.18894" x2="1488.18894" y1="70.86614" y2="673.22833" /></g><g id="hlines" stroke="lightgray"><line x1="0.0" x2="1488.18894" y1="70.86614" y2="70.86614" /><line x1="0.0" x2="1488.18894" y1="106.29921" y2="106.29921" /><line x1="0.0" x2="1488.18894" y1="141.73228" y2="141.73228" /><line x1="0.0" x2="1488.18894" y1="177.16535" y2="177.16535" /><line x1="0.0" x2="1488.18894" y1="212.59842" y2="212.59842" /><line x1="0.0" x2="1488.18894" y1="248.03149000000002" y2="248.03149000000002" /><line x1="0.0" x2="1488.18894" y1="283.46456" y2="283.46456" /><line x1="0.0" x2="1488.18894" y1="318.89763" y2="318.89763" /><line x1="0.0" x2="1488.18894" y1="354.3307" y2="354.3307" /><line x1="0.0" x2="1488.18894" y1="389.76377" y2="389.76377" /><line x1="0.0" x2="1488.18894" y1="425.19684" y2="425.19684" /><line x1="0.0" x2="1488.18894" y1="460.62991" y2="460.62991" /><line x1="0.0" x2="1488.18894" y1="496.06298000000004" y2="496.06298000000004" /><line x1="0.0" x2="1488.18894" y1="531.49605" y2="531.49605" /><line x1="0.0" x2="1488.18894" y1="566.92912" y2="566.92912" /><line x1="0.0" x2="1488.18894" y1="602.36219" y2="602.36219" /><line x1="0.0" x2="1488.18894" y1="637.79526" y2="637.79526" /><line x1="0.0" x2="1488.18894" y1="673.22833" y2="673.22833" /></g><line stroke="black" x1="0.0" x2="1488.18894" y1="70.86614" y2="70.86614" /><line stroke="black" x1="0.0" x2="1488.18894" y1="673.22833" y2="673.22833" /></g><g><g><text fill="black" font-family="Arial Bold" font-size="18" stroke="black" stroke-width="0.001" x="10.629921" y="95.669289">Matemáticas 1º Bachillerato CHS</text><rect fill="purple" height="581.102348" opacity="0.5" stroke="lightgray" stroke-width="0" width="7.086614000000001" x="2.8346456" y="88.582675" /><g><g id="Presentación"><rect fill="#FF8080" height="28.346456" opacity="0.85" stroke="#FF8080" stroke-width="2" width="28.346456" x="3.543307" y="109.842517" /><rect fill="#909090" height="10.629921" opacity="0.2" stroke="#FF8080" stroke-width="1" width="28.346456" x="3.543307" y="127.559052" /><text fill="black" font-family="Arial Bold" font-size="15" stroke="black" stroke-width="0.001" x="7.086614" y="124.015745">Presentación</text></g><g><text fill="black" font-family="Arial Bold" font-size="18" stroke="black" stroke-width="0.001" x="31.889763" y="166.535429">ARITMÉTICA Y ÁLGEBRA</text><rect fill="purple" height="85.039368" opacity="0.5" stroke="lightgray" stroke-width="0" width="7.086614000000001" x="24.0944876" y="159.448815" /><g><g id="Números_reales"><rect fill="#FF8080" height="28.346456" opacity="0.85" stroke="#FF8080" stroke-width="2" width="170.078736" x="38.976377" y="180.708657" /><rect fill="#909090" height="10.629921" opacity="0.2" stroke="#FF8080" stroke-width="1" width="170.078736" x="38.976377" y="198.425192" /><text fill="black" font-family="Arial Bold" font-size="15" stroke="black" stroke-width="0.001" x="42.519684" y="194.881885">Números reales</text></g><g id="Álgebra"><rect fill="#FF8080" height="28.346456" opacity="0.85" stroke="#FF8080" stroke-width="2" width="276.377946" x="180.708657" y="216.141727" /><rect fill="#909090" height="10.629921" opacity="0.2" stroke="#FF8080" stroke-width="1" width="276.377946" x="180.708657" y="233.858262" /><text fill="black" font-family="Arial Bold" font-size="15" stroke="black" stroke-width="0.001" x="184.251964" y="230.314955">Álgebra</text></g></g></g><g><text fill="black" font-family="Arial Bold" font-size="18" stroke="black" stroke-width="0.001" x="31.889763" y="272.834639">ESTADÍSTICA Y PROBABILIDAD</text><rect fill="purple" height="155.90550800000003" opacity="0.5" stroke="lightgray" stroke-width="0" width="7.086614000000001" x="24.0944876" y="265.748025" /><g><g id="Estadística_unidimensional"><rect fill="#FF8080" height="28.346456" opacity="0.85" stroke="#FF8080" stroke-width="2" width="63.779526" x="428.740147" y="287.007867" /><rect fill="#909090" height="10.629921" opacity="0.2" stroke="#FF8080" stroke-width="1" width="63.779526" x="428.740147" y="304.724402" /><text fill="black" font-family="Arial Bold" font-size="15" stroke="black" stroke-width="0.001" x="432.283454" y="301.18109499999997">Estadística unidimensional</text></g><g id="Distribuciones_bidimensionales"><rect fill="#FF8080" height="28.346456" opacity="0.85" stroke="#FF8080" stroke-width="2" width="170.078736" x="464.173217" y="322.440937" /><rect fill="#909090" height="10.629921" opacity="0.2" stroke="#FF8080" stroke-width="1" width="170.078736" x="464.173217" y="340.157472" /><text fill="black" font-family="Arial Bold" font-size="15" stroke="black" stroke-width="0.001" x="467.716524" y="336.614165">Distribuciones bidimensionales</text></g><g id="Dist._de_variable_discreta"><rect fill="#FF8080" height="28.346456" opacity="0.85" stroke="#FF8080" stroke-width="2" width="134.645666" x="605.905497" y="357.874007" /><rect fill="#909090" height="10.629921" opacity="0.2" stroke="#FF8080" stroke-width="1" width="134.645666" x="605.905497" y="375.59054199999997" /><text fill="black" font-family="Arial Bold" font-size="15" stroke="black" stroke-width="0.001" x="609.448804" y="372.047235">Dist. de variable discreta</text></g><g id="Dist._de_variable_continua"><rect fill="#FF8080" height="28.346456" opacity="0.85" stroke="#FF8080" stroke-width="2" width="99.212596" x="712.204707" y="393.307077" /><rect fill="#909090" height="10.629921" opacity="0.2" stroke="#FF8080" stroke-width="1" width="99.212596" x="712.204707" y="411.023612" /><text fill="black" font-family="Arial Bold" font-size="15" stroke="black" stroke-width="0.001" x="715.748014" y="407.480305">Dist. de variable continua</text></g></g></g><g><text fill="black" font-family="Arial Bold" font-size="18" stroke="black" stroke-width="0.001" x="31.889763" y="449.99998899999997">ANÁLISIS</text><rect fill="purple" height="155.90550800000003" opacity="0.5" stroke="lightgray" stroke-width="0" width="7.086614000000001" x="24.0944876" y="442.91337500000003" /><g><g id="Funciones_elementales"><rect fill="#FF8080" height="28.346456" opacity="0.85" stroke="#FF8080" stroke-width="2" width="99.212596" x="783.070847" y="464.173217" /><rect fill="#909090" height="10.629921" opacity="0.2" stroke="#FF8080" stroke-width="1" width="99.212596" x="783.070847" y="481.889752" /><text fill="black" font-family="Arial Bold" font-size="15" stroke="black" stroke-width="0.001" x="786.614154" y="478.346445">Funciones elementales</text></g><g id="Funciones_exponenciales__logarítmicas_y_trigonométricas"><rect fill="#FF8080" height="28.346456" opacity="0.85" stroke="#FF8080" stroke-width="2" width="99.212596" x="889.370057" y="499.606287" /><rect fill="#909090" height="10.629921" opacity="0.2" stroke="#FF8080" stroke-width="1" width="99.212596" x="889.370057" y="517.322822" /><text fill="black" font-family="Arial Bold" font-size="15" stroke="black" stroke-width="0.001" x="892.913364" y="513.779515">Funciones exponenciales, logarítmicas y trigonométricas</text></g><g id="Límites_de_funciones._Continuidad_y_ramas_infinitas"><rect fill="#FF8080" height="28.346456" opacity="0.85" stroke="#FF8080" stroke-width="2" width="240.944876" x="960.236197" y="535.039357" /><rect fill="#909090" height="10.629921" opacity="0.2" stroke="#FF8080" stroke-width="1" width="240.944876" x="960.236197" y="552.755892" /><text fill="black" font-family="Arial Bold" font-size="15" stroke="black" stroke-width="0.001" x="963.779504" y="549.212585">Límites de funciones. Continuidad y ramas infinitas</text></g><g id="Iniciación_al_cálculo_de_derivadas._Aplicaciones"><rect fill="#FF8080" height="28.346456" opacity="0.85" stroke="#FF8080" stroke-width="2" width="170.078736" x="1172.834617" y="570.472427" /><rect fill="#909090" height="10.629921" opacity="0.2" stroke="#FF8080" stroke-width="1" width="170.078736" x="1172.834617" y="588.188962" /><text fill="black" font-family="Arial Bold" font-size="15" stroke="black" stroke-width="0.001" x="1176.377924" y="584.645655">Iniciación al cálculo de derivadas. Aplicaciones</text></g></g></g><g><text fill="black" font-family="Arial Bold" font-size="18" stroke="black" stroke-width="0.001" x="31.889763" y="627.165339">MATEMÁTICA FINANCIERA</text><rect fill="purple" height="49.606297999999995" opacity="0.5" stroke="lightgray" stroke-width="0" width="7.086614000000001" x="24.0944876" y="620.078725" /><g><g id="Aritmética_mercantil"><rect fill="#FF8080" height="28.346456" opacity="0.85" stroke="#FF8080" stroke-width="2" width="99.212596" x="1349.999967" y="641.338567" /><rect fill="#909090" height="10.629921" opacity="0.2" stroke="#FF8080" stroke-width="1" width="99.212596" x="1349.999967" y="659.055102" /><text fill="black" font-family="Arial Bold" font-size="15" stroke="black" stroke-width="0.001" x="1353.5432739999999" y="655.511795">Aritmética mercantil</text></g></g></g></g></g><g><g><g><line stroke="black" stroke-dasharray="5,3" x1="28.346456" x2="35.43307" y1="124.015745" y2="124.015745" /><marker id="id164" markerHeight="10" markerWidth="10" refX="5" refY="5"><circle cx="5" cy="5" fill="#000000" opacity="0.5" r="5" stroke-width="0" /></marker><line marker-end="url(#id164)" stroke="black" stroke-dasharray="5,3" x1="35.43307" x2="35.43307" y1="124.015745" y2="194.881885" /></g><g><line stroke="black" stroke-dasharray="5,3" x1="205.511806" x2="177.16535" y1="194.881885" y2="194.881885" /><marker id="id165" markerHeight="10" markerWidth="10" refX="5" refY="5"><circle cx="5" cy="5" fill="#000000" opacity="0.5" r="5" stroke-width="0" /></marker><line marker-end="url(#id165)" stroke="black" stroke-dasharray="5,3" x1="177.16535" x2="177.16535" y1="194.881885" y2="230.314955" /></g></g><g><g><line stroke="black" stroke-dasharray="5,3" x1="453.543296" x2="425.19684" y1="230.314955" y2="230.314955" /><marker id="id166" markerHeight="10" markerWidth="10" refX="5" refY="5"><circle cx="5" cy="5" fill="#000000" opacity="0.5" r="5" stroke-width="0" /></marker><line marker-end="url(#id166)" stroke="black" stroke-dasharray="5,3" x1="425.19684" x2="425.19684" y1="230.314955" y2="301.18109499999997" /></g><g><line stroke="black" stroke-dasharray="5,3" x1="488.976366" x2="460.62991" y1="301.18109499999997" y2="301.18109499999997" /><marker id="id167" markerHeight="10" markerWidth="10" refX="5" refY="5"><circle cx="5" cy="5" fill="#000000" opacity="0.5" r="5" stroke-width="0" /></marker><line marker-end="url(#id167)" stroke="black" stroke-dasharray="5,3" x1="460.62991" x2="460.62991" y1="301.18109499999997" y2="336.614165" /></g><g><line stroke="black" stroke-dasharray="5,3" x1="630.708646" x2="602.3621899999999" y1="336.614165" y2="336.614165" /><marker id="id168" markerHeight="10" markerWidth="10" refX="5" refY="5"><circle cx="5" cy="5" fill="#000000" opacity="0.5" r="5" stroke-width="0" /></marker><line marker-end="url(#id168)" stroke="black" stroke-dasharray="5,3" x1="602.3621899999999" x2="602.3621899999999" y1="336.614165" y2="372.047235" /></g><g><line stroke="black" stroke-dasharray="5,3" x1="737.007856" x2="708.6614" y1="372.047235" y2="372.047235" /><marker id="id169" markerHeight="10" markerWidth="10" refX="5" refY="5"><circle cx="5" cy="5" fill="#000000" opacity="0.5" r="5" stroke-width="0" /></marker><line marker-end="url(#id169)" stroke="black" stroke-dasharray="5,3" x1="708.6614" x2="708.6614" y1="372.047235" y2="407.480305" /></g></g><g><g><line stroke="black" stroke-dasharray="5,3" x1="807.873996" x2="779.52754" y1="407.480305" y2="407.480305" /><marker id="id170" markerHeight="10" markerWidth="10" refX="5" refY="5"><circle cx="5" cy="5" fill="#000000" opacity="0.5" r="5" stroke-width="0" /></marker><line marker-end="url(#id170)" stroke="black" stroke-dasharray="5,3" x1="779.52754" x2="779.52754" y1="407.480305" y2="478.346445" /></g><g><line stroke="black" stroke-dasharray="5,3" x1="878.740136" x2="885.82675" y1="478.346445" y2="478.346445" /><marker id="id171" markerHeight="10" markerWidth="10" refX="5" refY="5"><circle cx="5" cy="5" fill="#000000" opacity="0.5" r="5" stroke-width="0" /></marker><line marker-end="url(#id171)" stroke="black" stroke-dasharray="5,3" x1="885.82675" x2="885.82675" y1="478.346445" y2="513.779515" /></g><g><line stroke="black" stroke-dasharray="5,3" x1="985.039346" x2="956.69289" y1="513.779515" y2="513.779515" /><marker id="id172" markerHeight="10" markerWidth="10" refX="5" refY="5"><circle cx="5" cy="5" fill="#000000" opacity="0.5" r="5" stroke-width="0" /></marker><line marker-end="url(#id172)" stroke="black" stroke-dasharray="5,3" x1="956.69289" x2="956.69289" y1="513.779515" y2="549.212585" /></g><g><line stroke="black" stroke-dasharray="5,3" x1="1197.637766" x2="1169.29131" y1="549.212585" y2="549.212585" /><marker id="id173" markerHeight="10" markerWidth="10" refX="5" refY="5"><circle cx="5" cy="5" fill="#000000" opacity="0.5" r="5" stroke-width="0" /></marker><line marker-end="url(#id173)" stroke="black" stroke-dasharray="5,3" x1="1169.29131" x2="1169.29131" y1="549.212585" y2="584.645655" /></g></g><g><g><line stroke="black" stroke-dasharray="5,3" x1="1339.370046" x2="1346.45666" y1="584.645655" y2="584.645655" /><marker id="id174" markerHeight="10" markerWidth="10" refX="5" refY="5"><circle cx="5" cy="5" fill="#000000" opacity="0.5" r="5" stroke-width="0" /></marker><line marker-end="url(#id174)" stroke="black" stroke-dasharray="5,3" x1="1346.45666" x2="1346.45666" y1="584.645655" y2="655.511795" /></g></g></g></g></svg>